<svg xmlns="http://www.w3.org/2000/svg" viewBox="0 0 1619 943.712">
  <defs>
    <style>
      .cls-1 {
        fill: #272727;
        font-size: 118px;
        font-family: AnonymousPro-Bold, Anonymous Pro;
        font-weight: 700;
      }
    </style>
  </defs>
  <g id="Groupe_13" data-name="Groupe 13" transform="translate(-128 -613)">
    <g id="Groupe_11" data-name="Groupe 11">
      <g id="Groupe_8" data-name="Groupe 8" transform="translate(1 8)">
        <text id="_" data-name="+" class="cls-1" transform="translate(355 819.712)"><tspan x="-32.208" y="0">+</tspan></text>
        <text id="_2" data-name="+" class="cls-1" transform="translate(743 819.712)"><tspan x="-32.208" y="0">+</tspan></text>
        <text id="_3" data-name="+" class="cls-1" transform="translate(1132 819.712)"><tspan x="-32.208" y="0">+</tspan></text>
        <text id="_4" data-name="+" class="cls-1" transform="translate(1520 819.712)"><tspan x="-32.208" y="0">+</tspan></text>
      </g>
      <g id="Groupe_7" data-name="Groupe 7">
        <text id="_5" data-name="+" class="cls-1" transform="translate(161 710)"><tspan x="-32.208" y="0">+</tspan></text>
        <text id="_6" data-name="+" class="cls-1" transform="translate(1326 710)"><tspan x="-32.208" y="0">+</tspan></text>
        <text id="_7" data-name="+" class="cls-1" transform="translate(549 710)"><tspan x="-32.208" y="0">+</tspan></text>
        <text id="_8" data-name="+" class="cls-1" transform="translate(938 710)"><tspan x="-32.208" y="0">+</tspan></text>
        <text id="_9" data-name="+" class="cls-1" transform="translate(1714 710)"><tspan x="-32.208" y="0">+</tspan></text>
      </g>
      <g id="Groupe_9" data-name="Groupe 9" transform="translate(1 244)">
        <text id="_10" data-name="+" class="cls-1" transform="translate(355 819.712)"><tspan x="-32.208" y="0">+</tspan></text>
        <text id="_11" data-name="+" class="cls-1" transform="translate(743 819.712)"><tspan x="-32.208" y="0">+</tspan></text>
        <text id="_12" data-name="+" class="cls-1" transform="translate(1132 819.712)"><tspan x="-32.208" y="0">+</tspan></text>
        <text id="_13" data-name="+" class="cls-1" transform="translate(1520 819.712)"><tspan x="-32.208" y="0">+</tspan></text>
      </g>
      <g id="Groupe_10" data-name="Groupe 10" transform="translate(0 236)">
        <text id="_14" data-name="+" class="cls-1" transform="translate(161 710)"><tspan x="-32.208" y="0">+</tspan></text>
        <text id="_15" data-name="+" class="cls-1" transform="translate(1326 710)"><tspan x="-32.208" y="0">+</tspan></text>
        <text id="_16" data-name="+" class="cls-1" transform="translate(549 710)"><tspan x="-32.208" y="0">+</tspan></text>
        <text id="_17" data-name="+" class="cls-1" transform="translate(938 710)"><tspan x="-32.208" y="0">+</tspan></text>
        <text id="_18" data-name="+" class="cls-1" transform="translate(1714 710)"><tspan x="-32.208" y="0">+</tspan></text>
      </g>
    </g>
    <g id="Groupe_12" data-name="Groupe 12" transform="translate(0 472)">
      <g id="Groupe_8-2" data-name="Groupe 8" transform="translate(1 8)">
        <text id="_19" data-name="+" class="cls-1" transform="translate(355 819.712)"><tspan x="-32.208" y="0">+</tspan></text>
        <text id="_20" data-name="+" class="cls-1" transform="translate(743 819.712)"><tspan x="-32.208" y="0">+</tspan></text>
        <text id="_21" data-name="+" class="cls-1" transform="translate(1132 819.712)"><tspan x="-32.208" y="0">+</tspan></text>
        <text id="_22" data-name="+" class="cls-1" transform="translate(1520 819.712)"><tspan x="-32.208" y="0">+</tspan></text>
      </g>
      <g id="Groupe_7-2" data-name="Groupe 7">
        <text id="_23" data-name="+" class="cls-1" transform="translate(161 710)"><tspan x="-32.208" y="0">+</tspan></text>
        <text id="_24" data-name="+" class="cls-1" transform="translate(1326 710)"><tspan x="-32.208" y="0">+</tspan></text>
        <text id="_25" data-name="+" class="cls-1" transform="translate(549 710)"><tspan x="-32.208" y="0">+</tspan></text>
        <text id="_26" data-name="+" class="cls-1" transform="translate(938 710)"><tspan x="-32.208" y="0">+</tspan></text>
        <text id="_27" data-name="+" class="cls-1" transform="translate(1714 710)"><tspan x="-32.208" y="0">+</tspan></text>
      </g>
      <g id="Groupe_9-2" data-name="Groupe 9" transform="translate(1 244)">
        <text id="_28" data-name="+" class="cls-1" transform="translate(355 819.712)"><tspan x="-32.208" y="0">+</tspan></text>
        <text id="_29" data-name="+" class="cls-1" transform="translate(743 819.712)"><tspan x="-32.208" y="0">+</tspan></text>
        <text id="_30" data-name="+" class="cls-1" transform="translate(1132 819.712)"><tspan x="-32.208" y="0">+</tspan></text>
        <text id="_31" data-name="+" class="cls-1" transform="translate(1520 819.712)"><tspan x="-32.208" y="0">+</tspan></text>
      </g>
      <g id="Groupe_10-2" data-name="Groupe 10" transform="translate(0 236)">
        <text id="_32" data-name="+" class="cls-1" transform="translate(161 710)"><tspan x="-32.208" y="0">+</tspan></text>
        <text id="_33" data-name="+" class="cls-1" transform="translate(1326 710)"><tspan x="-32.208" y="0">+</tspan></text>
        <text id="_34" data-name="+" class="cls-1" transform="translate(549 710)"><tspan x="-32.208" y="0">+</tspan></text>
        <text id="_35" data-name="+" class="cls-1" transform="translate(938 710)"><tspan x="-32.208" y="0">+</tspan></text>
        <text id="_36" data-name="+" class="cls-1" transform="translate(1714 710)"><tspan x="-32.208" y="0">+</tspan></text>
      </g>
    </g>
  </g>
</svg>
