<svg xmlns="http://www.w3.org/2000/svg" viewBox="0 0 279.173 34.189">
  <defs>
    <style>
      .cls-1 {
        fill: #222;
      }

      .cls-2 {
        fill: #f35a60;
      }
    </style>
  </defs>
  <g id="Groupe_15" data-name="Groupe 15" transform="translate(-267.152 -333.515)">
    <path id="Tracé_1" data-name="Tracé 1" class="cls-1" d="M15.521,0H11.883V-1.512A8.765,8.765,0,0,1,9.756-.088,5.8,5.8,0,0,1,7.313.4,6.844,6.844,0,0,1,4.377-.229,6.887,6.887,0,0,1,2.048-2,8.333,8.333,0,0,1,.519-4.711,10.418,10.418,0,0,1-.035-8.174a10.44,10.44,0,0,1,.554-3.454,8.317,8.317,0,0,1,1.529-2.725,6.988,6.988,0,0,1,2.329-1.775,6.765,6.765,0,0,1,2.936-.642,6.078,6.078,0,0,1,2.443.466,8.149,8.149,0,0,1,2.127,1.4v-4.746H8.719v-3.287h6.8ZM11.883-12.023a4.134,4.134,0,0,0-1.679-1.1,5.681,5.681,0,0,0-1.96-.378A4.242,4.242,0,0,0,4.9-12.023,5.633,5.633,0,0,0,3.6-8.174,5.566,5.566,0,0,0,4.9-4.342,4.265,4.265,0,0,0,8.244-2.883a5.681,5.681,0,0,0,1.96-.378,4.134,4.134,0,0,0,1.679-1.1Zm24.574,3.85a9.559,9.559,0,0,1-.606,3.48A7.7,7.7,0,0,1,34.11-2,7.981,7.981,0,0,1,31.395-.229,9.438,9.438,0,0,1,27.861.4a9.339,9.339,0,0,1-3.5-.633A7.981,7.981,0,0,1,21.647-2a7.7,7.7,0,0,1-1.74-2.7,9.559,9.559,0,0,1-.606-3.48,9.618,9.618,0,0,1,.606-3.454,7.831,7.831,0,0,1,1.74-2.742,7.75,7.75,0,0,1,2.716-1.775,9.456,9.456,0,0,1,3.5-.624,9.556,9.556,0,0,1,3.533.624A7.75,7.75,0,0,1,34.11-14.37a7.831,7.831,0,0,1,1.74,2.742A9.618,9.618,0,0,1,36.457-8.174Zm-3.621,0a6.393,6.393,0,0,0-.343-2.1,4.738,4.738,0,0,0-.993-1.7,4.768,4.768,0,0,0-1.573-1.116,5,5,0,0,0-2.065-.413,4.985,4.985,0,0,0-2.074.413,4.6,4.6,0,0,0-1.547,1.116,4.88,4.88,0,0,0-.976,1.7,6.393,6.393,0,0,0-.343,2.1,6.174,6.174,0,0,0,.343,2.109,5.159,5.159,0,0,0,.976,1.67,4.3,4.3,0,0,0,1.547,1.116,5.176,5.176,0,0,0,2.074.4,5.193,5.193,0,0,0,2.065-.4A4.452,4.452,0,0,0,31.5-4.395a5,5,0,0,0,.993-1.67A6.174,6.174,0,0,0,32.836-8.174ZM55.072-2.338A8.561,8.561,0,0,1,51.741-.176,11.965,11.965,0,0,1,47.953.4a10.789,10.789,0,0,1-3.735-.615A8.1,8.1,0,0,1,41.37-1.942a7.461,7.461,0,0,1-1.793-2.7,9.556,9.556,0,0,1-.624-3.533,9.376,9.376,0,0,1,.624-3.454,8.433,8.433,0,0,1,1.688-2.725,7.678,7.678,0,0,1,2.5-1.775,7.437,7.437,0,0,1,3.059-.642,5.883,5.883,0,0,1,2.936.7,4.093,4.093,0,0,1,1.811,2.057v-2.373h3.252v7.629H51.574a4.907,4.907,0,0,0-1.187-3.454A4,4,0,0,0,47.3-13.5a4.6,4.6,0,0,0-1.591.308,4.5,4.5,0,0,0-1.529.958,5.167,5.167,0,0,0-1.151,1.652,5.772,5.772,0,0,0-.457,2.408,5.812,5.812,0,0,0,.439,2.364,4.75,4.75,0,0,0,1.151,1.635,4.712,4.712,0,0,0,1.688.967,6.323,6.323,0,0,0,2.013.325,7.883,7.883,0,0,0,3.085-.554A7.338,7.338,0,0,0,53.209-4.9ZM75.516-5.221a6.084,6.084,0,0,1-2.03,4.1A6.42,6.42,0,0,1,69.117.4,7.085,7.085,0,0,1,66.48-.07a5.946,5.946,0,0,1-2.039-1.318,5.859,5.859,0,0,1-1.31-2.03,7.034,7.034,0,0,1-.466-2.593V-13.1H58.957v-3.287h3.709v-6.557H66.3v6.557h6.873V-13.1H66.3v7.084a3.2,3.2,0,0,0,.773,2.355,2.757,2.757,0,0,0,2.039.773,2.844,2.844,0,0,0,2.3-.9,3.946,3.946,0,0,0,.9-2.162ZM94.852-16.383,87.785,3.2a5.1,5.1,0,0,1-2.3,2.918,7.678,7.678,0,0,1-3.6.791,9.247,9.247,0,0,1-1.547-.141,9.528,9.528,0,0,1-1.723-.475l.756-3.34a8.2,8.2,0,0,0,1.389.4,6.412,6.412,0,0,0,1.125.114,2.212,2.212,0,0,0,2.232-1.441l.65-1.582L78.5-16.383h3.779l4.5,12.393,4.166-12.393Zm4.271,0h3.639v1.477a7.942,7.942,0,0,1,2.1-1.4,6.015,6.015,0,0,1,2.435-.466,6.765,6.765,0,0,1,2.936.642,6.9,6.9,0,0,1,2.32,1.775,8.534,8.534,0,0,1,1.529,2.725,10.292,10.292,0,0,1,.563,3.454,10.27,10.27,0,0,1-.562,3.463A8.552,8.552,0,0,1,112.553-2a6.8,6.8,0,0,1-2.32,1.767A6.844,6.844,0,0,1,107.3.4a5.735,5.735,0,0,1-2.435-.492,8.536,8.536,0,0,1-2.1-1.424V6.557H99.123Zm3.639,11.988a4.308,4.308,0,0,0,1.661,1.116,5.323,5.323,0,0,0,1.942.4,4.265,4.265,0,0,0,3.349-1.459,5.566,5.566,0,0,0,1.292-3.832,5.633,5.633,0,0,0-1.292-3.85,4.242,4.242,0,0,0-3.349-1.477,5.538,5.538,0,0,0-1.942.378,4.149,4.149,0,0,0-1.661,1.1ZM121.254-6.8A4.427,4.427,0,0,0,122.862-4a5.479,5.479,0,0,0,3.612,1.116,7.883,7.883,0,0,0,3.085-.554A7.338,7.338,0,0,0,131.818-4.9l1.863,2.566a8.533,8.533,0,0,1-3.349,2.162,12.3,12.3,0,0,1-3.858.58,9.7,9.7,0,0,1-3.533-.633A8.542,8.542,0,0,1,120.111-2a8.113,8.113,0,0,1-1.872-2.7,8.678,8.678,0,0,1-.677-3.48,9.239,9.239,0,0,1,.624-3.437,8.081,8.081,0,0,1,1.758-2.725,7.958,7.958,0,0,1,2.716-1.793,9.226,9.226,0,0,1,3.5-.642,9.249,9.249,0,0,1,3.6.677,7.625,7.625,0,0,1,2.769,1.96,9.184,9.184,0,0,1,1.8,3.138,12.62,12.62,0,0,1,.65,4.192Zm9.615-3.2a3.836,3.836,0,0,0-1.635-2.54,5.194,5.194,0,0,0-3.076-.958,5.273,5.273,0,0,0-3.094.958A3.818,3.818,0,0,0,121.412-10Zm17.1,10h-4.43V-4.43h4.43Zm25.014-2.338a8.561,8.561,0,0,1-3.331,2.162,11.965,11.965,0,0,1-3.788.58,10.789,10.789,0,0,1-3.735-.615,8.1,8.1,0,0,1-2.848-1.731,7.461,7.461,0,0,1-1.793-2.7,9.556,9.556,0,0,1-.624-3.533,9.376,9.376,0,0,1,.624-3.454,8.433,8.433,0,0,1,1.688-2.725,7.678,7.678,0,0,1,2.5-1.775,7.437,7.437,0,0,1,3.059-.642,5.883,5.883,0,0,1,2.936.7,4.093,4.093,0,0,1,1.811,2.057v-2.373h3.252v7.629h-3.252a4.907,4.907,0,0,0-1.187-3.454,4,4,0,0,0-3.085-1.292,4.6,4.6,0,0,0-1.591.308,4.5,4.5,0,0,0-1.529.958,5.167,5.167,0,0,0-1.151,1.652,5.772,5.772,0,0,0-.457,2.408,5.812,5.812,0,0,0,.439,2.364,4.75,4.75,0,0,0,1.151,1.635,4.712,4.712,0,0,0,1.688.967,6.323,6.323,0,0,0,2.013.325,7.883,7.883,0,0,0,3.085-.554A7.338,7.338,0,0,0,171.123-4.9Zm20.689-5.836a9.559,9.559,0,0,1-.606,3.48,7.7,7.7,0,0,1-1.74,2.7,7.981,7.981,0,0,1-2.716,1.767A9.438,9.438,0,0,1,185.08.4a9.339,9.339,0,0,1-3.5-.633A7.981,7.981,0,0,1,178.866-2a7.7,7.7,0,0,1-1.74-2.7,9.559,9.559,0,0,1-.606-3.48,9.618,9.618,0,0,1,.606-3.454,7.831,7.831,0,0,1,1.74-2.742,7.75,7.75,0,0,1,2.716-1.775,9.456,9.456,0,0,1,3.5-.624,9.556,9.556,0,0,1,3.533.624,7.75,7.75,0,0,1,2.716,1.775,7.831,7.831,0,0,1,1.74,2.742A9.618,9.618,0,0,1,193.676-8.174Zm-3.621,0a6.393,6.393,0,0,0-.343-2.1,4.738,4.738,0,0,0-.993-1.7,4.768,4.768,0,0,0-1.573-1.116,5,5,0,0,0-2.065-.413,4.985,4.985,0,0,0-2.074.413,4.6,4.6,0,0,0-1.547,1.116,4.88,4.88,0,0,0-.976,1.7,6.393,6.393,0,0,0-.343,2.1,6.174,6.174,0,0,0,.343,2.109,5.159,5.159,0,0,0,.976,1.67,4.3,4.3,0,0,0,1.547,1.116,5.176,5.176,0,0,0,2.074.4,5.193,5.193,0,0,0,2.065-.4,4.452,4.452,0,0,0,1.573-1.116,5,5,0,0,0,.993-1.67A6.174,6.174,0,0,0,190.055-8.174Zm23.273,0a9.559,9.559,0,0,1-.606,3.48,7.7,7.7,0,0,1-1.74,2.7,7.981,7.981,0,0,1-2.716,1.767A9.438,9.438,0,0,1,204.732.4a9.339,9.339,0,0,1-3.5-.633A7.981,7.981,0,0,1,198.519-2a7.7,7.7,0,0,1-1.74-2.7,9.559,9.559,0,0,1-.606-3.48,9.618,9.618,0,0,1,.606-3.454,7.831,7.831,0,0,1,1.74-2.742,7.75,7.75,0,0,1,2.716-1.775,9.456,9.456,0,0,1,3.5-.624,9.556,9.556,0,0,1,3.533.624,7.75,7.75,0,0,1,2.716,1.775,7.831,7.831,0,0,1,1.74,2.742A9.618,9.618,0,0,1,213.328-8.174Zm-3.621,0a6.393,6.393,0,0,0-.343-2.1,4.738,4.738,0,0,0-.993-1.7,4.768,4.768,0,0,0-1.573-1.116,5,5,0,0,0-2.065-.413,4.985,4.985,0,0,0-2.074.413,4.6,4.6,0,0,0-1.547,1.116,4.88,4.88,0,0,0-.976,1.7,6.393,6.393,0,0,0-.343,2.1,6.174,6.174,0,0,0,.343,2.109,5.159,5.159,0,0,0,.976,1.67,4.3,4.3,0,0,0,1.547,1.116,5.176,5.176,0,0,0,2.074.4,5.193,5.193,0,0,0,2.065-.4,4.452,4.452,0,0,0,1.573-1.116,5,5,0,0,0,.993-1.67A6.174,6.174,0,0,0,209.707-8.174ZM229.957,0h-11V-3.27h3.586V-19.652h-3.586v-3.287h7.225V-3.27h3.779Z" transform="translate(316.369 360.796)"/>
    <circle id="Ellipse_4" data-name="Ellipse 4" class="cls-1" cx="17.066" cy="17.066" r="17.066" transform="translate(267.152 333.515)"/>
    <path id="Tracé_2" data-name="Tracé 2" class="cls-2" d="M6.921-7.144H0v6.9H-3.451v-6.9h-6.921v-3.47h6.921v-6.9H0v6.9H6.921Z" transform="translate(286.085 359.097)"/>
  </g>
</svg>
